<svg width="60" height="60" viewBox="0 0 60 60" fill="none" xmlns="http://www.w3.org/2000/svg">
<path d="M60 30.0001C60 13.4316 46.5685 0.000123849 30 0.000124574C13.4315 0.000125298 -2.03558e-06 13.4316 -1.31134e-06 30.0001C-5.87108e-07 46.5687 13.4315 60.0001 30 60.0001C46.5685 60.0001 60 46.5687 60 30.0001Z" fill="#CACACA"/>
<path d="M29.9886 42.3217C36.4333 42.3217 41.6578 35.0854 41.6578 26.159C41.6578 17.2325 36.4333 9.99622 29.9886 9.99622C23.5438 9.99622 18.3193 17.2325 18.3193 26.159C18.3193 35.0854 23.5438 42.3217 29.9886 42.3217Z" fill="white"/>
<path d="M29.8034 41.288C20.0381 41.288 11.3012 43.6274 5.4967 47.3102C8.25606 51.2175 11.9102 54.408 16.1539 56.6153C20.3976 58.8226 25.1078 59.9826 29.8913 59.9985C34.6747 60.0143 39.3925 58.8856 43.6508 56.7065C47.909 54.5275 51.5842 51.3613 54.3695 47.4723C48.565 43.6969 39.7169 41.288 29.8034 41.288Z" fill="white"/>
<path d="M31.768 29.9941H28.2102C25.749 29.9941 23.7538 31.9894 23.7538 34.4506V44.5911C23.7538 47.0523 25.749 49.0476 28.2102 49.0476H31.768C34.2292 49.0476 36.2244 47.0523 36.2244 44.5911V34.4506C36.2244 31.9894 34.2292 29.9941 31.768 29.9941Z" fill="white"/>
<path d="M20.163 27.0755C20.5104 29.6697 19.936 31.9164 18.8751 32.0971C17.8143 32.2778 16.6747 30.3182 16.3273 27.7287C15.9798 25.1391 16.5496 22.8924 17.6105 22.7117C18.6713 22.531 19.8109 24.4674 20.163 27.0755Z" fill="white"/>
<path d="M39.819 27.0755C39.467 29.6697 40.0414 31.9164 41.1022 32.0971C42.1631 32.2778 43.3027 30.3182 43.6547 27.7287C44.0068 25.1391 43.4277 22.8924 42.3669 22.7117C41.3061 22.531 40.1665 24.4674 39.819 27.0755Z" fill="white"/>
<path d="M18.7412 25.5244C18.3459 22.9333 17.9537 20.3452 17.5646 17.7603C17.421 16.8338 17.282 15.8286 17.6248 14.9438C17.9676 14.059 18.9729 13.3502 19.8669 13.6837C19.5102 11.8863 21.5022 10.5568 23.2348 9.97774C26.1343 8.91532 29.2392 8.53335 32.3098 8.86131C35.3912 9.20667 38.2504 10.633 40.3796 12.8869C41.0503 13.5924 41.5691 14.4281 41.9037 15.3422C42.5013 17.1164 42.1214 19.0482 41.7369 20.9011L40.8104 25.2696C40.7673 25.6056 40.6381 25.9248 40.4352 26.1961C40.0738 26.5991 39.4624 26.6269 38.9204 26.6269L21.5578 26.6686C20.4692 26.6686 19.0516 26.3999 18.908 25.3205" fill="white"/>
</svg>
