<svg width="17" height="19" viewBox="0 0 17 19" fill="none" xmlns="http://www.w3.org/2000/svg">
<g clip-path="url(#clip0_2_145)">
<path d="M0.570068 6.82996H15.8001" stroke="#FF836B" stroke-width="1.2" stroke-linecap="round" stroke-linejoin="round"/>
<path d="M11.64 0.5V3.31" stroke="#FF836B" stroke-width="1.2" stroke-linecap="round" stroke-linejoin="round"/>
<path d="M4.74011 0.5V3.31" stroke="#FF836B" stroke-width="1.2" stroke-linecap="round" stroke-linejoin="round"/>
<path d="M11.8101 1.84998H4.57006C2.06006 1.84998 0.500056 3.24998 0.500056 5.84998V13.55C0.454719 14.0928 0.529466 14.6389 0.718993 15.1496C0.908519 15.6603 1.20817 16.123 1.59667 16.5048C1.98516 16.8866 2.45297 17.1782 2.96686 17.3588C3.48074 17.5395 4.0281 17.6047 4.57006 17.55H11.8001C14.3201 17.55 15.8801 16.14 15.8801 13.55V5.81998C15.8801 3.24998 14.3201 1.84998 11.8101 1.84998Z" stroke="#FF836B" stroke-width="1.2" stroke-linecap="round" stroke-linejoin="round"/>
</g>
<defs>
<clipPath id="clip0_2_145">
<rect width="16.38" height="18.09" fill="white"/>
</clipPath>
</defs>
</svg>
