<svg width="15" height="12" viewBox="0 0 15 12" fill="none" xmlns="http://www.w3.org/2000/svg">
<g clip-path="url(#clip0_258_69)">
<path d="M13.2932 1.36524C12.8949 1.36524 12.4966 1.36524 12.0983 1.36524H10.9731C10.7938 0.378215 10.3517 0.00403675 9.40376 0.00201416H5.53825C4.64406 0.00201416 4.15813 0.428779 4.02271 1.36321C3.26992 1.36321 2.52909 1.36321 1.79024 1.36321C0.724784 1.36321 -0.00211435 2.09741 -0.00211435 3.17343C-0.00211435 5.51288 -0.00211435 7.85234 -0.00211435 10.1918C-0.00565192 10.3273 0.00435563 10.4628 0.027757 10.5963C0.197035 11.4377 0.888087 11.9858 1.79024 11.9858C4.97664 11.9858 8.15774 11.9858 11.3335 11.9858C11.9867 11.9858 12.6399 11.9858 13.2952 11.9858C13.5204 11.9864 13.7435 11.9413 13.9513 11.8531C14.1592 11.7649 14.3476 11.6354 14.5054 11.4722C14.6633 11.3091 14.7875 11.1155 14.8707 10.9029C14.9539 10.6903 14.9944 10.463 14.9899 10.2343C14.9899 7.85571 14.9899 5.47715 14.9899 3.09859C14.9937 2.87077 14.9524 2.6445 14.8686 2.43315C14.7848 2.2218 14.6601 2.02965 14.5019 1.86806C14.3437 1.70648 14.1553 1.57873 13.9477 1.49236C13.74 1.406 13.5175 1.36277 13.2932 1.36524ZM14.2471 10.1109C14.2471 10.8633 13.8846 11.2253 13.1498 11.2253C11.2552 11.2253 9.36194 11.2253 7.47001 11.2253H1.87986C1.0972 11.2253 0.758641 10.8815 0.758641 10.0846C0.758641 7.80582 0.758641 5.52704 0.758641 3.24826C0.758641 2.48777 1.10317 2.13584 1.846 2.13382H4.30551C4.68389 2.13382 4.80936 2.00235 4.81533 1.61806C4.81533 1.50884 4.81533 1.39962 4.81533 1.29242C4.81503 1.22234 4.82864 1.15292 4.85533 1.08829C4.88202 1.02367 4.92125 0.965166 4.97069 0.916276C5.02013 0.867386 5.07876 0.82911 5.14308 0.803734C5.20741 0.778358 5.2761 0.766401 5.34507 0.768574C6.78028 0.760484 8.21483 0.760484 9.64871 0.768574C9.72311 0.763281 9.79774 0.774964 9.86712 0.802768C9.9365 0.830572 9.99887 0.873791 10.0497 0.929258C10.1005 0.984725 10.1384 1.05103 10.1607 1.12332C10.183 1.19561 10.189 1.27205 10.1784 1.34703C10.1307 2.15607 10.3776 2.15607 11.0169 2.13786C11.7478 2.12573 12.4806 2.13786 13.2075 2.13786C13.8747 2.13786 14.2371 2.50597 14.2391 3.18759C14.2484 5.49468 14.2511 7.80245 14.2471 10.1109Z" fill="black"/>
<path d="M7.48407 3.1229C7.02414 3.12396 6.56892 3.21705 6.14442 3.39685C5.71992 3.57665 5.33447 3.83963 5.01008 4.17078C4.68569 4.50192 4.42872 4.89473 4.25385 5.32677C4.07899 5.75881 3.98967 6.22161 3.99098 6.68872C3.99256 7.6314 4.36267 8.53486 5.01993 9.20049C5.6772 9.86612 6.56783 10.2394 7.49602 10.2384C8.42475 10.24 9.31609 9.86696 9.97411 9.20133C10.6321 8.5357 11.0029 7.63194 11.0051 6.68872C11.0058 6.21937 10.9152 5.7545 10.7385 5.32085C10.5617 4.8872 10.3022 4.49334 9.97494 4.16193C9.6477 3.83052 9.25916 3.56811 8.83167 3.38979C8.40419 3.21147 7.9462 3.12077 7.48407 3.1229ZM7.50399 9.46573C7.14484 9.46733 6.7889 9.397 6.45654 9.25876C6.12417 9.12052 5.8219 8.9171 5.56702 8.66011C5.31214 8.40313 5.10964 8.09763 4.97111 7.7611C4.83259 7.42456 4.76074 7.06359 4.7597 6.69883C4.75917 6.33388 4.82943 5.97241 4.96646 5.63503C5.10349 5.29766 5.30461 4.99101 5.55833 4.73257C5.81205 4.47414 6.11341 4.26899 6.44519 4.12884C6.77698 3.98869 7.1327 3.91629 7.49204 3.91575C7.8534 3.91548 8.21123 3.98789 8.54489 4.12882C8.87854 4.26975 9.1814 4.4764 9.43599 4.73685C9.69058 4.99729 9.89186 5.30637 10.0282 5.64624C10.1645 5.98612 10.2333 6.35005 10.2304 6.71704C10.2246 7.44772 9.93486 8.14652 9.42424 8.66131C8.91363 9.1761 8.22347 9.46522 7.50399 9.46573Z" fill="black"/>
<path d="M13.2674 3.82472C13.2642 4.00929 13.1898 4.18522 13.0602 4.3146C12.9306 4.44399 12.7561 4.51648 12.5743 4.51645C12.4819 4.5173 12.3902 4.49921 12.3049 4.46325C12.2195 4.42729 12.1421 4.3742 12.0774 4.30716C12.0127 4.24012 11.962 4.16052 11.9283 4.0731C11.8946 3.98569 11.8786 3.89227 11.8813 3.79843C11.8844 3.61419 11.9581 3.43843 12.0868 3.30851C12.2154 3.17859 12.3889 3.10474 12.5703 3.10266C12.6628 3.10345 12.7542 3.12277 12.8394 3.15952C12.9245 3.19626 13.0016 3.2497 13.0664 3.31678C13.1311 3.38385 13.1822 3.46325 13.2167 3.55041C13.2512 3.63758 13.2684 3.73079 13.2674 3.82472Z" fill="black"/>
</g>
<defs>
<clipPath id="clip0_258_69">
<rect width="15" height="12" fill="white"/>
</clipPath>
</defs>
</svg>
