<svg width="13" height="12" viewBox="0 0 13 12" fill="none" xmlns="http://www.w3.org/2000/svg">
<path d="M11.6734 5.63132C11.5956 5.62181 11.5171 5.61961 11.439 5.62475H5.93076C5.91482 5.58538 5.90216 5.55819 5.89231 5.53101C5.60636 4.73417 5.0124 4.272 4.25157 4.25887C3.45885 4.24481 2.84896 4.68073 2.54285 5.4996C2.49128 5.64022 2.40877 5.62522 2.30845 5.62522C1.69153 5.62522 1.07414 5.62522 0.456752 5.62522C0.167043 5.62522 -0.00593835 5.77475 0.000155855 6.00958C0.00578128 6.23457 0.174546 6.37379 0.453004 6.37472C1.05492 6.37472 1.65638 6.38222 2.25783 6.37097C2.43175 6.36769 2.51331 6.41035 2.57379 6.58518C2.69111 6.92777 2.91404 7.22434 3.21053 7.43228C3.50702 7.64022 3.86181 7.74882 4.22391 7.74248C4.58197 7.74004 4.93057 7.6273 5.22224 7.41963C5.51391 7.21195 5.73447 6.91943 5.85388 6.5819C5.87732 6.51722 5.90075 6.4516 5.927 6.37425H11.4371C11.5153 6.37934 11.5937 6.3773 11.6715 6.36816C11.8726 6.33113 11.9964 6.20832 11.9968 6.00021C11.9973 5.79209 11.8745 5.66928 11.6734 5.63132ZM4.20844 6.99063C4.07747 6.99127 3.94768 6.96582 3.82664 6.91578C3.7056 6.86574 3.59574 6.79212 3.50346 6.69919C3.41117 6.60626 3.33831 6.49589 3.28912 6.37451C3.23993 6.25314 3.2154 6.12319 3.21696 5.99224C3.21696 5.73183 3.32016 5.48202 3.50397 5.29753C3.68778 5.11304 3.93722 5.0089 4.19766 5.00791C4.32848 5.00586 4.4584 5.02977 4.57992 5.07826C4.70144 5.12674 4.81214 5.19884 4.90561 5.29038C4.99907 5.38192 5.07346 5.49109 5.12446 5.61156C5.17546 5.73203 5.20207 5.86142 5.20273 5.99224C5.20385 6.12335 5.17893 6.25338 5.12942 6.37479C5.07991 6.4962 5.0068 6.60658 4.91432 6.69954C4.82184 6.79249 4.71182 6.86616 4.59065 6.91629C4.46948 6.96642 4.33957 6.99201 4.20844 6.99157V6.99063Z" fill="black"/>
<path d="M11.4904 1.3641C10.9049 1.3641 10.3184 1.3552 9.73291 1.36926C9.55149 1.37348 9.48164 1.31161 9.42351 1.14615C9.30542 0.808274 9.08431 0.515953 8.79131 0.310357C8.49831 0.10476 8.14819 -0.00375361 7.79026 9.9153e-05C7.43254 -0.00109827 7.08313 0.107909 6.78956 0.312294C6.49599 0.516679 6.27251 0.806521 6.14952 1.1424C6.12279 1.21364 6.09888 1.28536 6.07123 1.3641H0.552687C0.47449 1.35871 0.395945 1.36138 0.318295 1.37207C0.119999 1.41473 -0.00329195 1.53847 0.00186468 1.74706C0.00702132 1.95564 0.130778 2.07517 0.333293 2.10845C0.411169 2.1163 0.489541 2.11802 0.567686 2.11361H6.06888C6.08669 2.16048 6.09888 2.18766 6.10919 2.21719C6.38672 3.0056 6.99098 3.46917 7.75745 3.48277C8.53985 3.49495 9.16896 3.04732 9.45351 2.25657C9.50039 2.12814 9.56461 2.11314 9.67572 2.11361C10.2772 2.11642 10.8786 2.11361 11.4801 2.11361C11.8213 2.11361 11.9957 1.98845 11.9995 1.74471C12.0032 1.50097 11.8218 1.36457 11.4904 1.3641ZM7.77948 2.73139C7.64845 2.73085 7.51883 2.70428 7.39816 2.65321C7.27749 2.60214 7.16818 2.5276 7.07658 2.43392C6.98498 2.34023 6.91292 2.22928 6.86458 2.1075C6.81625 1.98572 6.7926 1.85555 6.79503 1.72456C6.79921 1.46419 6.90553 1.21589 7.09108 1.03317C7.27663 0.850451 7.52655 0.747937 7.78698 0.747725C7.91823 0.746661 8.04839 0.771742 8.16985 0.821504C8.29131 0.871266 8.40164 0.944714 8.49441 1.03756C8.58719 1.13041 8.66053 1.2408 8.71019 1.36229C8.75984 1.48378 8.7848 1.61394 8.78362 1.74518C8.78389 1.87628 8.75798 2.00611 8.70739 2.12705C8.6568 2.248 8.58256 2.35762 8.48902 2.44948C8.39549 2.54135 8.28454 2.61361 8.1627 2.66202C8.04085 2.71043 7.91056 2.73401 7.77948 2.73139Z" fill="black"/>
<path d="M11.5314 9.88603C10.9219 9.88603 10.3125 9.88134 9.70309 9.88837C9.55777 9.88837 9.48933 9.85415 9.43776 9.70463C9.18508 8.9706 8.54144 8.5164 7.78482 8.51734C7.0282 8.51827 6.38831 8.98325 6.13282 9.71072C6.11313 9.76744 6.0911 9.82369 6.06813 9.88556H0.572093C0.493948 9.8817 0.415629 9.88327 0.337701 9.89025C0.132841 9.91884 0.0095546 10.0402 0.00158525 10.2469C-0.0063841 10.4537 0.116902 10.5807 0.313323 10.6266C0.390832 10.6388 0.469484 10.6419 0.547715 10.636H6.06907C6.08595 10.6768 6.09579 10.6983 6.10329 10.7199C6.38456 11.5167 6.99398 11.993 7.73888 12C8.55316 12.008 9.1593 11.581 9.45464 10.771C9.50151 10.6379 9.57605 10.6355 9.68106 10.6355C10.2983 10.6355 10.9155 10.6355 11.5328 10.6355C11.8253 10.6355 12.0015 10.4916 12.0015 10.2605C12.0015 10.0295 11.8304 9.88696 11.5314 9.88603ZM7.78764 11.2524C7.52725 11.252 7.27739 11.1495 7.09187 10.9668C6.90635 10.7841 6.79999 10.5359 6.79569 10.2755C6.79333 10.1446 6.81701 10.0144 6.86537 9.89267C6.91373 9.77093 6.98579 9.65999 7.07738 9.56632C7.16897 9.47265 7.27825 9.39811 7.39889 9.34702C7.51953 9.29593 7.64912 9.26931 7.78014 9.26871C7.91118 9.26621 8.04141 9.28991 8.16318 9.3384C8.28494 9.3869 8.39579 9.45922 8.48924 9.55112C8.58268 9.64302 8.65683 9.75266 8.70733 9.87359C8.75783 9.99453 8.78367 10.1243 8.78334 10.2554C8.78452 10.3865 8.75959 10.5166 8.70999 10.638C8.66039 10.7594 8.58711 10.8697 8.49443 10.9625C8.40175 11.0553 8.29153 11.1287 8.17018 11.1785C8.04883 11.2283 7.91879 11.2534 7.78764 11.2524Z" fill="black"/>
</svg>
