<svg width="153" height="168" viewBox="0 0 153 168" fill="none" xmlns="http://www.w3.org/2000/svg">
<path d="M2.33454 29.6511C20.3711 50.3004 42.8256 66.6237 68.0322 77.41C65.438 55.653 66.7833 33.6067 72.0037 12.3265C49.16 11.0819 26.2866 14.16 4.58448 21.3992C3.78241 21.6677 3.05891 22.1297 2.47805 22.7445C1.8972 23.3593 1.47691 24.1079 1.25442 24.9239C1.03193 25.7399 1.01409 26.5982 1.2025 27.4227C1.3909 28.2473 1.77973 29.0127 2.33454 29.6511Z" fill="#0B648B"/>
<path d="M68.0352 77.4589L68.0378 77.4775C68.0713 77.4728 68.118 77.508 68.1526 77.5108L68.1552 77.5294C82.8956 83.8761 98.4102 88.2464 114.296 90.5268C117.232 90.9382 120.139 91.3079 123.055 91.5741C124.518 91.7178 125.974 91.8434 127.4 91.9354C128.825 92.0274 130.235 92.0913 131.667 92.1482L131.701 92.1435L131.723 92.1404C131.735 92.1532 131.751 92.1616 131.768 92.1644L131.794 92.1607C131.972 91.3763 132.125 90.5955 132.307 89.8105C132.385 89.3667 132.467 88.9261 132.562 88.495C132.926 86.9251 133.276 85.3344 133.59 83.7335C133.586 83.7037 133.621 83.6532 133.624 83.6224C133.627 83.5916 133.616 83.5666 133.612 83.5368C134.165 80.791 134.636 78.0164 135.024 75.2129C135.315 73.338 135.551 71.4785 135.755 69.6083C136.608 62.1638 137.01 54.6746 136.959 47.1815C136.95 45.2842 136.904 43.3922 136.821 41.5054C136.671 37.7296 136.397 33.9712 135.992 30.197C135.958 29.9587 135.924 29.713 135.892 29.4858C135.724 28.8067 135.417 28.1698 134.991 27.6152L134.959 27.5779L134.955 27.5519C134.409 26.8541 133.689 26.3123 132.866 25.9811C113.56 17.9938 93.0169 13.4071 72.1465 12.4241L72.0104 12.4015C70.7217 17.6857 69.6412 23.047 68.8389 28.4147C66.3681 44.6524 66.0978 61.149 68.0352 77.4589Z" fill="url(#paint0_linear_84_915)"/>
<path d="M103.675 154.282C116.818 135.467 126.342 114.371 131.762 92.0702C125.912 91.8493 120.078 91.3105 114.286 90.456C98.3597 88.1687 82.8065 83.7818 68.0321 77.4099C71.1895 104.684 80.4539 130.895 95.1365 154.096C95.591 154.807 96.2137 155.396 96.9497 155.81C97.6857 156.223 98.5123 156.449 99.3564 156.468C100.2 156.486 101.036 156.296 101.789 155.915C102.543 155.534 103.19 154.973 103.675 154.282Z" fill="#0DCE8B"/>
<path d="M68.1186 77.2421L134.916 27.3826C134.369 26.6821 133.647 26.138 132.823 25.805C113.51 17.832 92.9645 13.2599 72.0936 12.291L72.0638 12.2952C66.8659 33.5326 65.5296 55.5317 68.1186 77.2421Z" fill="#0F7E8B"/>
<path d="M68.1176 77.4512C82.9061 83.83 98.4741 88.2224 114.416 90.5139C117.268 90.9256 120.151 91.257 123.011 91.5576C124.481 91.7002 125.935 91.8301 127.363 91.9179C128.792 92.0057 130.207 92.1636 131.625 92.2301L131.638 92.1334C132.383 89.3291 133.014 86.5218 133.561 83.6846C133.588 83.6225 133.598 83.5542 133.59 83.4869C134.145 80.7358 134.616 77.9573 135.004 75.1512C137.19 60.2193 137.519 45.0743 135.984 30.0615C135.882 29.1072 135.524 28.1983 134.946 27.4318L68.1009 77.3321C68.1197 77.3688 68.1255 77.4108 68.1176 77.4512Z" fill="#0EA78A"/>
<defs>
<linearGradient id="paint0_linear_84_915" x1="25404.8" y1="-3575.05" x2="25467.9" y2="-3542.01" gradientUnits="userSpaceOnUse">
<stop stop-color="#F7F7F7"/>
<stop offset="1" stop-color="#EFEFEF"/>
</linearGradient>
</defs>
</svg>
