<svg width="254" height="79" viewBox="0 0 254 79" fill="none" xmlns="http://www.w3.org/2000/svg">
<path d="M189.559 12.4261C197.24 21.22 206.803 28.1716 217.538 32.7651C216.433 23.4995 217.006 14.1107 219.229 5.04812C209.501 4.51806 199.76 5.82893 190.517 8.91189C190.176 9.02621 189.868 9.22299 189.62 9.48482C189.373 9.74664 189.194 10.0654 189.099 10.4129C189.004 10.7605 188.997 11.126 189.077 11.4771C189.157 11.8283 189.323 12.1542 189.559 12.4261Z" fill="#0B648B"/>
<path d="M217.539 32.7861L217.54 32.794C217.554 32.792 217.574 32.807 217.589 32.8081L217.59 32.8161C223.868 35.5189 230.475 37.3801 237.24 38.3513C238.49 38.5265 239.728 38.6839 240.97 38.7973C241.593 38.8585 242.213 38.912 242.821 38.9511C243.428 38.9903 244.028 39.0175 244.638 39.0418L244.652 39.0398L244.662 39.0384C244.667 39.0439 244.673 39.0475 244.681 39.0487L244.692 39.0471C244.768 38.713 244.833 38.3805 244.91 38.0462C244.943 37.8572 244.979 37.6696 245.019 37.486C245.174 36.8174 245.323 36.14 245.457 35.4582C245.455 35.4455 245.47 35.424 245.471 35.4109C245.473 35.3978 245.468 35.3871 245.466 35.3744C245.702 34.2051 245.902 33.0235 246.067 31.8295C246.191 31.0311 246.292 30.2392 246.379 29.4427C246.742 26.2724 246.913 23.0829 246.891 19.8919C246.888 19.0839 246.868 18.2781 246.833 17.4746C246.769 15.8666 246.652 14.266 246.479 12.6587C246.465 12.5572 246.45 12.4525 246.437 12.3558C246.365 12.0666 246.235 11.7954 246.053 11.5592L246.04 11.5433L246.038 11.5322C245.805 11.235 245.499 11.0043 245.149 10.8633C236.927 7.46171 228.178 5.5084 219.29 5.08978L219.232 5.08014C218.683 7.33052 218.223 9.61371 217.881 11.8997C216.829 18.8148 216.714 25.8402 217.539 32.7861Z" fill="url(#paint0_linear_84_304)"/>
<path d="M232.717 65.5024C238.314 57.49 242.37 48.5056 244.678 39.0085C242.187 38.9144 239.702 38.6849 237.236 38.321C230.453 37.3469 223.83 35.4787 217.538 32.7651C218.882 44.3802 222.828 55.5429 229.081 65.4233C229.274 65.7263 229.539 65.9769 229.853 66.1531C230.166 66.3293 230.518 66.4255 230.878 66.4334C231.237 66.4412 231.593 66.3603 231.914 66.198C232.235 66.0356 232.51 65.7967 232.717 65.5024Z" fill="#0DCE8B"/>
<path d="M217.575 32.6936L246.022 11.46C245.789 11.1617 245.481 10.9299 245.13 10.7881C236.906 7.39266 228.156 5.44556 219.267 5.03294L219.255 5.03472C217.041 14.0791 216.472 23.4478 217.575 32.6936Z" fill="#0F7E8B"/>
<path d="M217.574 32.7827C223.872 35.4992 230.502 37.3698 237.291 38.3457C238.506 38.521 239.733 38.6622 240.951 38.7902C241.577 38.8509 242.196 38.9062 242.805 38.9436C243.413 38.981 244.016 39.0483 244.62 39.0766L244.626 39.0354C244.943 37.8411 245.211 36.6456 245.444 35.4373C245.456 35.4109 245.46 35.3818 245.457 35.3531C245.693 34.1815 245.894 32.9982 246.059 31.8032C246.99 25.4442 247.13 18.9944 246.476 12.6009C246.433 12.1945 246.28 11.8074 246.034 11.481L217.567 32.732C217.575 32.7476 217.577 32.7655 217.574 32.7827Z" fill="#0EA78A"/>
<path d="M10.9398 73.1714C10.9398 74.905 10.342 76.2202 9.14642 77.1169C8.01059 78.0136 6.7552 78.462 5.38025 78.462C4.0053 78.462 2.7499 78.0435 1.61407 77.2066C0.538025 76.3099 0 74.9648 0 73.1714V20.983C0 19.4885 0.508134 18.2331 1.5244 17.2168C2.54067 16.2005 3.79606 15.6924 5.29058 15.6924H37.6617C39.4552 15.6924 40.8002 16.2603 41.6969 17.3961C42.5936 18.532 43.042 19.7874 43.042 21.1623C43.042 22.5373 42.5936 23.7927 41.6969 24.9285C40.8002 26.0643 39.4552 26.6322 37.6617 26.6322H10.9398V41.9659H32.1918C33.9852 41.9659 35.3303 42.5339 36.227 43.6697C37.1237 44.8055 37.5721 46.0609 37.5721 47.4359C37.6318 48.751 37.2134 49.9765 36.3167 51.1124C35.42 52.2482 34.045 52.8161 32.1918 52.8161H10.9398V73.1714Z" fill="#0B648B"/>
<path d="M47.55 38.5584C47.55 36.7052 48.118 35.3303 49.2538 34.4336C50.3896 33.5369 51.645 33.0885 53.02 33.0885C54.3949 33.0885 55.6503 33.5369 56.7861 34.4336C57.922 35.3303 58.4899 36.7052 58.4899 38.5584V72.3643C58.4899 74.1578 57.922 75.5327 56.7861 76.4892C55.6503 77.3859 54.3949 77.8343 53.02 77.8343C51.645 77.8343 50.3896 77.3859 49.2538 76.4892C48.118 75.5327 47.55 74.1578 47.55 72.3643V38.5584ZM52.9303 25.8252C51.1369 25.8252 49.7918 25.2872 48.8951 24.2111C48.0582 23.0753 47.6397 21.8498 47.6397 20.5346C47.6397 19.1597 48.0881 17.9043 48.9848 16.7684C49.8815 15.6326 51.2564 15.0647 53.1096 15.0647C54.903 15.0647 56.2481 15.6326 57.1448 16.7684C58.0415 17.9043 58.4899 19.1597 58.4899 20.5346C58.4899 21.8498 58.0116 23.0753 57.0552 24.2111C56.1584 25.2872 54.7835 25.8252 52.9303 25.8252Z" fill="#0B648B"/>
<path d="M65.6769 52.9954C65.6769 49.5282 66.3046 46.4794 67.5599 43.849C68.8751 41.2187 70.5789 39.0068 72.6712 37.2134C74.8233 35.42 77.2145 34.0749 79.8448 33.1782C82.535 32.2217 85.255 31.7435 88.0049 31.7435C90.695 31.7435 93.2955 32.1918 95.8062 33.0885C98.317 33.9255 100.559 35.2107 102.532 36.9444C104.504 38.678 106.089 40.8899 107.284 43.58C108.48 46.2701 109.078 49.4086 109.078 52.9954V72.3643C109.078 74.1578 108.48 75.5327 107.284 76.4892C106.148 77.3859 104.893 77.8343 103.518 77.8343C102.143 77.8343 100.888 77.3859 99.7518 76.4892C98.6159 75.5925 98.048 74.2175 98.048 72.3643V52.9954C98.048 51.2618 97.7192 49.7673 97.0616 48.5119C96.4638 47.1967 95.6568 46.1207 94.6405 45.2838C93.684 44.387 92.5482 43.7295 91.233 43.311C89.9179 42.8328 88.6027 42.5936 87.2875 42.5936C85.9723 42.5936 84.6572 42.8328 83.342 43.311C82.0866 43.7295 80.9508 44.387 79.9345 45.2838C78.978 46.1207 78.171 47.1967 77.5134 48.5119C76.9156 49.7673 76.6167 51.2618 76.6167 52.9954V72.3643C76.6167 74.1578 76.0488 75.5327 74.9129 76.4892C73.7771 77.3859 72.5217 77.8343 71.1468 77.8343C69.7718 77.8343 68.5164 77.3859 67.3806 76.4892C66.2448 75.5327 65.6769 74.1578 65.6769 72.3643V52.9954Z" fill="#0B648B"/>
<path d="M127.321 72.3643C127.321 74.1578 126.753 75.5327 125.618 76.4892C124.482 77.3859 123.226 77.8343 121.851 77.8343C120.476 77.8343 119.191 77.3859 117.996 76.4892C116.86 75.5327 116.292 74.1578 116.292 72.3643V36.496C116.352 33.3874 116.979 30.5777 118.175 28.067C119.371 25.5562 120.805 23.434 122.479 21.7003C124.213 19.9069 126.066 18.532 128.039 17.5755C130.011 16.619 131.805 16.1407 133.419 16.1407C134.854 16.1407 136.019 16.5592 136.916 17.3961C137.873 18.1733 138.351 19.4287 138.351 21.1623C138.351 21.0427 138.351 21.1922 138.351 21.6107C138.351 21.9693 138.261 22.4476 138.082 23.0454C137.902 23.6432 137.544 24.2709 137.006 24.9285C136.528 25.5861 135.75 26.0942 134.674 26.4529C132.582 27.23 130.818 28.5153 129.384 30.3087C128.009 32.1021 127.321 34.1646 127.321 36.496H132.971C134.764 36.496 136.079 37.0639 136.916 38.1998C137.813 39.3356 138.261 40.591 138.261 41.9659C138.261 43.2811 137.813 44.5066 136.916 45.6424C136.079 46.7185 134.764 47.2565 132.971 47.2565H127.321V72.3643Z" fill="#0B648B"/>
<path d="M142.913 20.6243C142.913 18.7711 143.481 17.3961 144.617 16.4994C145.812 15.6027 147.097 15.1544 148.472 15.1544C149.847 15.1544 151.103 15.6027 152.239 16.4994C153.374 17.3961 153.942 18.7711 153.942 20.6243V72.3643C153.942 74.1578 153.374 75.5327 152.239 76.4892C151.103 77.3859 149.847 77.8343 148.472 77.8343C147.097 77.8343 145.812 77.3859 144.617 76.4892C143.481 75.5327 142.913 74.1578 142.913 72.3643V20.6243Z" fill="#0B648B"/>
<path d="M159.334 55.4166C159.334 52.1884 159.932 49.1396 161.127 46.2701C162.383 43.4007 164.086 40.8899 166.238 38.7378C168.45 36.5857 171.021 34.8819 173.95 33.6266C176.879 32.3712 180.048 31.7435 183.455 31.7435C186.863 31.7435 190.031 32.3712 192.96 33.6266C195.89 34.8222 198.43 36.496 200.582 38.6481C202.794 40.8002 204.528 43.311 205.783 46.1805C207.039 49.0499 207.666 52.1286 207.666 55.4166C207.666 58.6447 207.039 61.6935 205.783 64.563C204.588 67.3727 202.884 69.8536 200.672 72.0057C198.52 74.1578 195.949 75.8615 192.96 77.1169C190.031 78.3723 186.863 79 183.455 79C180.048 79 176.85 78.3723 173.86 77.1169C170.931 75.8615 168.391 74.1578 166.238 72.0057C164.086 69.8536 162.383 67.3428 161.127 64.4733C159.932 61.6038 159.334 58.5849 159.334 55.4166ZM183.455 42.504C180.586 42.504 178.165 43.1615 176.192 44.4767C174.279 45.7321 172.814 47.3163 171.798 49.2293C170.842 51.0825 170.363 53.1449 170.363 55.4166C170.363 57.6284 170.842 59.6909 171.798 61.6038C172.755 63.457 174.189 65.0412 176.102 66.3564C178.075 67.6118 180.526 68.2395 183.455 68.2395C186.385 68.2395 188.806 67.6118 190.719 66.3564C192.691 65.0412 194.156 63.457 195.112 61.6038C196.069 59.6909 196.547 57.6284 196.547 55.4166C196.547 53.1449 196.069 51.0825 195.112 49.2293C194.156 47.3163 192.691 45.7321 190.719 44.4767C188.806 43.1615 186.385 42.504 183.455 42.504Z" fill="#0B648B"/>
<defs>
<linearGradient id="paint0_linear_84_304" x1="11007.7" y1="-1522.7" x2="11034.5" y2="-1508.63" gradientUnits="userSpaceOnUse">
<stop stop-color="#F7F7F7"/>
<stop offset="1" stop-color="#EFEFEF"/>
</linearGradient>
</defs>
</svg>
