<svg width="298" height="80" viewBox="0 0 298 80" fill="none" xmlns="http://www.w3.org/2000/svg">
    <defs>
        <linearGradient id="paint0_linear_117_705" x1="33.0761" y1="-1.43464" x2="33.0761" y2="77.6754" gradientUnits="userSpaceOnUse">
            <stop stop-color="#FDC625"/>
            <stop offset="1" stop-color="#E78F20"/>
        </linearGradient>
    </defs>
    <path d="M47.8957 18.8712C44.6611 15.3262 40.2958 13.0145 35.5457 12.3312C33.2281 11.9177 30.8533 11.9449 28.5457 12.4112C26.3537 12.7874 24.2598 13.6011 22.3888 14.8037C20.5179 16.0063 18.9082 17.5733 17.6557 19.4112C16.0103 21.762 14.7949 24.386 14.0657 27.1612C14.1115 27.2079 14.1372 27.2708 14.1372 27.3362C14.1372 27.4016 14.1115 27.4645 14.0657 27.5112H14.0057L13.9157 28.2912C13.6701 30.5673 13.9017 32.8696 14.5957 35.0512C15.9168 38.8125 18.2573 42.1327 21.3557 44.6412C25.3557 47.8612 24.3057 52.0612 21.3557 54.7712C21.1157 55.3412 21.3557 55.5412 21.9157 55.5412C23.2257 55.5412 24.5257 55.4712 25.8357 55.3312C30.9384 54.8945 35.8905 53.3812 40.3657 50.8912C43.3452 49.1339 45.9949 46.8699 48.1957 44.2012C48.3268 43.8616 48.5481 43.5643 48.8357 43.3412C49.9352 41.5824 50.8373 39.7078 51.5257 37.7512C53.8157 30.7812 52.9157 24.3912 47.8957 18.8712ZM28.5857 15.8712C28.5733 15.8664 28.56 15.8642 28.5467 15.8647C28.5333 15.8651 28.5202 15.8682 28.5081 15.8738C28.496 15.8794 28.4851 15.8874 28.4761 15.8972C28.4671 15.9071 28.4602 15.9186 28.4557 15.9312C28.4273 15.9825 28.3811 16.0217 28.3257 16.0412C28.3131 16.0306 28.2972 16.0248 28.2807 16.0248C28.2643 16.0248 28.2483 16.0306 28.2357 16.0412L28.0657 16.2812L27.7857 16.4212C27.7581 16.4182 27.7303 16.4259 27.708 16.4426C27.6858 16.4593 27.6706 16.4838 27.6657 16.5112C27.6035 16.5554 27.5364 16.5923 27.4657 16.6212L27.2257 16.7312C27.2171 16.7647 27.1978 16.7946 27.1708 16.8162C27.1437 16.8379 27.1104 16.8501 27.0757 16.8512L27.0257 16.9012L26.8357 17.0612C23.9564 19.1124 21.5069 21.708 19.6257 24.7012C19.0157 22.5412 20.8357 19.3612 24.0457 16.7712C24.0584 16.741 24.079 16.7147 24.1054 16.6953C24.1319 16.6759 24.1631 16.6641 24.1957 16.6612L24.4957 16.5212C24.5062 16.4959 24.5244 16.4745 24.5478 16.4601C24.5711 16.4457 24.5984 16.4391 24.6257 16.4412C24.9054 16.393 25.1636 16.2604 25.3657 16.0612C25.3755 16.0462 25.3888 16.0337 25.4045 16.025C25.4202 16.0163 25.4378 16.0116 25.4557 16.0112L25.7957 15.8612C25.81 15.8404 25.8296 15.8239 25.8525 15.8133C25.8754 15.8028 25.9007 15.7986 25.9257 15.8012L26.2157 15.7112L26.5457 15.5712L27.0957 15.4112C27.1114 15.404 27.1285 15.4003 27.1457 15.4003C27.163 15.4003 27.1801 15.404 27.1957 15.4112L27.7157 15.3212C28.3657 14.6312 29.1557 15.1312 29.8857 15.0312C29.7623 15.2549 29.5889 15.4471 29.379 15.5928C29.1691 15.7385 28.9285 15.8337 28.6757 15.8712H28.5857Z" fill="white"/>
    <path d="M65.1257 29.2113C64.4324 22.5925 61.6275 16.3726 57.1257 11.4713C55.2451 9.28333 53.0272 7.40974 50.5557 5.92126C49.7864 5.23105 48.9078 4.67346 47.9557 4.27126C47.7975 4.35152 47.6551 4.45996 47.5357 4.59126C45.8788 6.80412 43.6183 8.49166 41.0257 9.45126C39.3089 9.99177 37.5585 10.4193 35.7857 10.7313H33.8557C33.2657 10.7313 33.0457 10.4813 33.3357 9.94126C33.708 9.2542 34.1152 8.58666 34.5557 7.94126C36.5615 5.23464 39.3561 3.2155 42.5557 2.16126C44.5183 1.82506 46.5047 1.64781 48.4957 1.63126C48.4157 1.52126 48.3557 1.33126 48.2557 1.31126C47.0804 1.00876 45.8564 0.944161 44.6557 1.12126C43.8769 1.36358 43.0577 1.44857 42.2457 1.37126C40.496 0.938325 38.7231 0.604461 36.9357 0.371263C34.1341 -0.123754 31.2674 -0.123754 28.4657 0.371263C25.8493 0.8216 23.2716 1.47354 20.7557 2.32126C19.6357 2.71126 18.7557 3.57126 17.6557 3.95126C16.6037 4.35547 15.6114 4.90044 14.7057 5.57126C12.7441 6.86082 10.9503 8.38921 9.36574 10.1213C7.13617 12.3964 5.25881 14.9917 3.79574 17.8213C3.07817 19.2358 2.43725 20.6879 1.87574 22.1713C0.86467 24.7776 0.254408 27.5221 0.0657403 30.3113C-0.114724 33.3399 0.0767035 36.3792 0.63574 39.3613C1.22544 42.0356 2.06928 44.6474 3.15574 47.1613C3.39261 47.8798 3.77756 48.5407 4.28574 49.1013C4.42216 49.2287 4.57322 49.3394 4.73574 49.4313L4.82574 49.3513L5.61574 50.2713C5.72501 50.7324 6.008 51.1336 6.40574 51.3913C6.43673 51.6022 6.51722 51.8027 6.64063 51.9765C6.76404 52.1504 6.92685 52.2925 7.11574 52.3913C7.1113 52.5028 7.14433 52.6127 7.20958 52.7033C7.27482 52.7939 7.36852 52.8601 7.47574 52.8913C7.47128 52.9761 7.49694 53.0597 7.54818 53.1274C7.59941 53.1951 7.67293 53.2425 7.75574 53.2613L7.95574 53.4813C7.99226 53.6648 8.07339 53.8365 8.19199 53.9813C8.31058 54.126 8.46298 54.2394 8.63574 54.3113C8.66198 54.413 8.71324 54.5065 8.78485 54.5833C8.85645 54.6602 8.94614 54.7179 9.04574 54.7513C9.08293 54.8807 9.15474 54.9975 9.25342 55.0891C9.3521 55.1808 9.47392 55.2437 9.60574 55.2713C9.77574 55.2713 9.84574 55.3213 9.81574 55.4913C9.8169 55.5755 9.84756 55.6566 9.90237 55.7206C9.95719 55.7845 10.0327 55.8272 10.1157 55.8413C10.4257 55.8413 10.5557 56.0013 10.5357 56.3013L10.7357 56.4913C10.7583 56.5766 10.8092 56.6518 10.88 56.7044C10.9509 56.7571 11.0375 56.7842 11.1257 56.7813C11.2757 56.7813 11.3457 56.8313 11.3357 56.9813L11.3957 56.9213L11.3457 56.9813C11.4176 57.0564 11.4944 57.1266 11.5757 57.1913C11.6068 57.1912 11.6376 57.1975 11.6661 57.2097C11.6947 57.2219 11.7205 57.2397 11.742 57.2621C11.7635 57.2845 11.7802 57.3111 11.7912 57.3402C11.8021 57.3692 11.8071 57.4002 11.8057 57.4313C16.6989 61.7617 22.8332 64.4387 29.3357 65.0813C31.2457 65.3113 31.3857 65.4213 31.1557 67.3413C30.8108 70.1111 29.9815 72.7987 28.7057 75.2813C28.0957 76.4813 27.4657 77.6613 26.7057 79.0913C28.1634 78.2533 29.5693 77.3283 30.9157 76.3213C32.8457 74.9713 34.8357 73.7113 36.6357 72.1813C36.6357 71.8613 36.7757 71.7213 37.0957 71.7913C37.8062 71.584 38.4218 71.1347 38.8357 70.5213C39.544 70.3094 40.156 69.8566 40.5657 69.2413C40.5657 69.0879 40.6357 69.0179 40.7757 69.0313C40.7711 69.0115 40.7711 68.991 40.7757 68.9713C40.7757 68.8313 40.9057 68.8013 41.0557 68.8113C41.678 68.5849 42.2274 68.1945 42.6457 67.6813C42.7335 67.6809 42.82 67.6599 42.8982 67.6199C42.9763 67.58 43.044 67.5222 43.0957 67.4513C43.1283 67.4011 43.1551 67.3474 43.1757 67.2913L43.3357 67.1613C43.4816 67.1513 43.6209 67.0971 43.7352 67.006C43.8496 66.9149 43.9334 66.7912 43.9757 66.6513L44.1957 66.4413L44.4657 66.2213H44.5257C44.691 66.2098 44.8485 66.1466 44.9759 66.0408C45.1033 65.9349 45.1942 65.7916 45.2357 65.6313C45.3205 65.6357 45.4042 65.6101 45.4719 65.5588C45.5396 65.5076 45.587 65.4341 45.6057 65.3513C45.754 65.3386 45.8964 65.2878 46.0191 65.2036C46.1418 65.1195 46.2405 65.005 46.3057 64.8713C46.3297 64.8334 46.3498 64.7932 46.3657 64.7513H46.4457C46.6575 64.7088 46.855 64.6131 47.0195 64.4731C47.1839 64.3332 47.31 64.1535 47.3857 63.9513C49.4529 62.6211 51.3186 61.0013 52.9257 59.1413C53.1335 59.0444 53.319 58.9055 53.4704 58.7334C53.6219 58.5613 53.7361 58.3597 53.8057 58.1413C54.3985 57.8591 54.8577 57.3568 55.0857 56.7413L55.4757 56.2713C56.7468 55.1021 57.8415 53.7547 58.7257 52.2713C59.0091 52.0749 59.2533 51.8273 59.4457 51.5413C59.5498 51.3878 59.637 51.2235 59.7057 51.0513C59.7057 50.9813 59.7557 50.9113 59.7757 50.8313C59.8037 50.7561 59.827 50.6793 59.8457 50.6013C60.8706 49.5234 61.6516 48.2376 62.1357 46.8313C62.8957 45.1713 63.8257 43.5313 63.8957 41.6213C63.8957 41.4013 63.8957 41.1913 64.1057 41.0813C64.4893 40.1261 64.6992 39.1102 64.7257 38.0813C65.4435 35.18 65.5794 32.1653 65.1257 29.2113ZM51.5157 37.7513C50.8273 39.7047 49.9252 41.576 48.8257 43.3313L48.9157 43.4113C48.9157 43.8413 48.7557 44.1913 48.2657 44.2713L48.1957 44.2013C45.9899 46.865 43.341 49.1281 40.3657 50.8913C35.911 53.3936 30.9753 54.9207 25.8857 55.3713C24.5857 55.5213 23.2857 55.5613 21.9757 55.5813C21.3857 55.5813 21.1757 55.3813 21.4157 54.8213C24.3257 52.1213 25.3657 47.9013 21.4157 44.6913C18.3229 42.1797 15.9864 38.8602 14.6657 35.1013C13.9684 32.9169 13.7334 30.6114 13.9757 28.3313C13.9757 28.0713 14.0457 27.8113 14.0757 27.5613C14.1057 27.3113 14.0757 27.2913 14.0757 27.1613C14.7844 24.3845 15.9832 21.7566 17.6157 19.4013C18.8665 17.5618 20.4757 15.9936 22.347 14.7908C24.2182 13.588 26.3129 12.7753 28.5057 12.4013C30.8123 11.9251 33.1889 11.898 35.5057 12.3213C40.2551 12.9979 44.6194 15.3109 47.8457 18.8613C52.9157 24.3913 53.8057 30.7813 51.5157 37.7513Z" fill="url(#paint0_linear_117_705)"/>
    <path d="M14.0657 27.5614C14.0657 27.4314 14.0657 27.2914 14.0657 27.1614C14.1115 27.2081 14.1372 27.2709 14.1372 27.3364C14.1372 27.4018 14.1115 27.4646 14.0657 27.5114V27.5614Z" fill="#DF8E19"/>
    <path d="M28.0657 16.2813L27.7957 16.4213C27.6957 16.3713 27.6557 16.4213 27.7057 16.5013C27.6797 16.5009 27.6544 16.5097 27.6343 16.5262C27.6141 16.5427 27.6005 16.5657 27.5957 16.5913C27.4757 16.5413 27.4157 16.5913 27.4057 16.7013L27.1557 16.8113C27.0357 16.8113 26.9957 16.8113 27.0057 16.9413L26.9557 16.9913C26.8357 16.9913 26.7657 16.9913 26.7657 17.1413C23.8787 19.1868 21.4249 21.7833 19.5457 24.7813C18.9357 22.6213 20.7557 19.4413 23.9657 16.8513C24.0757 16.9013 24.1257 16.8513 24.1157 16.7413L24.4157 16.6013C24.5157 16.6613 24.5457 16.6013 24.5357 16.5213C24.8176 16.4709 25.0784 16.3388 25.2857 16.1413H25.3657V16.0613L25.7057 15.9113C25.7957 15.9913 25.8357 15.9113 25.8357 15.8513L26.1257 15.7613C26.2757 15.8213 26.4057 15.7613 26.4557 15.6213L27.0057 15.4613C27.0857 15.5613 27.1157 15.5313 27.1057 15.4613L27.6257 15.3613C27.9857 15.4813 28.5557 15.2213 28.6257 15.9113C28.6133 15.9066 28.6 15.9043 28.5867 15.9048C28.5733 15.9052 28.5602 15.9083 28.5481 15.9139C28.536 15.9195 28.5251 15.9275 28.5161 15.9373C28.5071 15.9472 28.5002 15.9588 28.4957 15.9713C28.3857 15.9713 28.3357 15.9713 28.3757 16.0813C28.3547 16.0778 28.333 16.0819 28.3147 16.0929C28.2964 16.1039 28.2826 16.1211 28.2757 16.1413C28.1157 16.1113 28.0657 16.1613 28.0657 16.2813Z" fill="#FBC124"/>
    <path d="M28.5857 15.9013C28.5857 15.2213 27.9757 15.4713 27.5857 15.3513C28.2257 14.6613 29.0157 15.1613 29.7557 15.0613C29.6352 15.2793 29.4677 15.4678 29.2653 15.6131C29.063 15.7584 28.8308 15.8568 28.5857 15.9013Z" fill="#FBC124"/>
    <path d="M26.4557 15.6514C26.4057 15.8514 26.2757 15.8514 26.1257 15.7914L26.4557 15.6514Z" fill="#FBC124"/>
    <path d="M27.3857 16.7014C27.3857 16.5814 27.4657 16.5414 27.5857 16.5914L27.3857 16.7014Z" fill="#FBC124"/>
    <path d="M24.5257 16.5212C24.5257 16.6312 24.5257 16.6612 24.4057 16.6012C24.4156 16.5775 24.4323 16.5573 24.4536 16.5431C24.475 16.5288 24.5001 16.5212 24.5257 16.5212Z" fill="#FBC124"/>
    <path d="M28.0657 16.2813C28.0657 16.1613 28.1257 16.1113 28.2457 16.1613L28.0657 16.2813Z" fill="#FBC124"/>
    <path d="M25.3657 16.0913V16.1713H25.2857C25.2906 16.152 25.3006 16.1343 25.3147 16.1202C25.3288 16.1061 25.3464 16.0961 25.3657 16.0913Z" fill="#FBC124"/>
    <path d="M28.3257 16.0813C28.3257 15.9613 28.3257 15.9313 28.4557 15.9713C28.4273 16.0226 28.3811 16.0617 28.3257 16.0813Z" fill="#FBC124"/>
    <path d="M27.0657 15.4414C27.0657 15.5614 27.0657 15.5914 26.9657 15.4414C26.9809 15.4326 26.9982 15.428 27.0157 15.428C27.0333 15.428 27.0505 15.4326 27.0657 15.4414Z" fill="#FBC124"/>
    <path d="M27.6957 16.5015C27.6457 16.4015 27.6957 16.3715 27.7857 16.4215C27.7776 16.4406 27.7653 16.4578 27.7498 16.4716C27.7342 16.4855 27.7157 16.4957 27.6957 16.5015Z" fill="#FBC124"/>
    <path d="M25.8357 15.8814C25.8357 15.9814 25.8357 16.0214 25.7057 15.9414C25.7167 15.9175 25.7358 15.8983 25.7596 15.8873C25.7835 15.8763 25.8105 15.8742 25.8357 15.8814Z" fill="#FBC124"/>
    <path d="M26.7557 17.1413C26.7557 17.0113 26.8257 16.9613 26.9457 16.9913L26.7557 17.1413Z" fill="#FBC124"/>
    <path d="M26.9957 16.9815C26.9957 16.8615 26.9957 16.8115 27.1457 16.8515C27.1362 16.8854 27.1169 16.9159 27.0903 16.939C27.0636 16.9621 27.0307 16.9769 26.9957 16.9815Z" fill="#FBC124"/>
    <path d="M24.0657 16.7415C24.0657 16.8515 24.0657 16.9015 23.9157 16.8515C23.9262 16.8198 23.9462 16.7921 23.9731 16.7724C24 16.7527 24.0324 16.7419 24.0657 16.7415Z" fill="#FBC124"/>
    <path d="M105.746 47.8012C105.746 48.8012 105.476 49.2612 104.416 49.1812C103.434 49.1012 102.447 49.1012 101.466 49.1812C100.416 49.2512 100.136 48.8112 100.146 47.8112C100.146 41.9712 100.146 36.1312 100.146 30.2912C100.164 29.9582 100.164 29.6243 100.146 29.2912C100.046 28.7312 99.7257 28.6412 99.3557 29.0512C98.9311 29.5275 98.5306 30.0248 98.1557 30.5412C95.9157 33.5412 93.6857 36.5412 91.4457 39.4812C90.2757 41.0312 89.8157 41.0312 88.6957 39.4812C86.3357 36.2812 83.9957 33.0712 81.6957 29.8712C81.3074 29.2425 80.7397 28.7444 80.0657 28.4412V31.5712C80.0657 36.9212 80.0657 42.2712 80.0657 47.6212C80.0657 48.8612 79.6657 49.1912 78.4657 49.1912C74.4657 49.1912 74.4657 49.2512 74.4657 45.1912C74.4657 37.2912 74.4657 29.3912 74.4657 21.4912C74.4657 20.0912 74.7757 19.7112 76.2857 19.4912C79.7457 19.0612 81.9457 20.2812 83.6757 23.2812C85.2457 25.9812 87.3457 28.3712 89.1657 30.9312C89.8657 31.9312 90.3357 31.9912 91.0857 30.9312C93.5257 27.4912 96.0857 24.1312 98.5057 20.6912C98.7276 20.3137 99.0523 20.0071 99.4418 19.807C99.8313 19.6069 100.27 19.5217 100.706 19.5612C101.928 19.6312 103.153 19.6312 104.376 19.5612C105.446 19.4912 105.726 19.9612 105.726 20.9412C105.732 29.9146 105.739 38.8679 105.746 47.8012Z" fill="#E28420"/>
    <path d="M174.066 46.2013C174.156 46.0413 174.196 45.8913 174.286 45.8313C178.636 43.1513 178.936 36.3313 176.506 32.9413C176.274 32.6992 176.144 32.3768 176.144 32.0413C176.144 31.7059 176.274 31.3834 176.506 31.1413C177.946 29.2313 177.906 29.2113 176.206 27.6413L175.896 27.3913L175.566 27.1713L175.326 27.0513L175.066 26.9813C174.999 26.9734 174.932 26.9734 174.866 26.9813H174.436L174.246 27.0313H174.156L174.066 26.9813L173.926 27.0513L173.836 27.1213L173.776 27.1813L173.706 27.2513L173.636 27.3213C173.595 27.3544 173.561 27.3951 173.536 27.4413C173.496 27.5069 173.452 27.5704 173.406 27.6313L173.306 27.7913C173.076 28.2013 172.726 28.7213 172.006 28.4313C171.68 28.2887 171.346 28.1651 171.006 28.0613C170.869 28.0121 170.728 27.972 170.586 27.9413C170.446 27.9413 170.316 27.8613 170.186 27.8413L169.776 27.7513L169.236 27.6713L168.696 27.6013H168.396H167.806C166.283 27.616 164.778 27.9286 163.376 28.5213L162.516 28.9013C161.932 29.205 161.365 29.5388 160.816 29.9013C160.543 30.3879 160.137 30.7868 159.646 31.0513C158.679 32.4236 157.996 33.9754 157.637 35.6154C157.278 37.2553 157.25 38.9505 157.556 40.6013C157.947 42.199 158.552 43.7363 159.356 45.1713C159.845 45.4401 160.247 45.8424 160.516 46.3313C161.009 46.452 161.438 46.7559 161.716 47.1813L161.996 47.3113C162.156 47.2613 162.246 47.3113 162.276 47.4813C164.21 48.1484 166.231 48.5323 168.276 48.6213C171.456 48.8813 173.276 50.5613 173.106 52.9913C172.936 55.4213 170.796 57.1513 167.796 57.1513C167.312 57.2497 166.808 57.1527 166.396 56.8813L165.796 56.7913C164.84 56.6585 163.955 56.2124 163.28 55.5229C162.605 54.8335 162.178 53.9396 162.066 52.9813H157.346L157.026 53.3113C157.256 54.9369 157.749 56.5142 158.486 57.9813C158.925 58.211 159.258 58.6016 159.416 59.0713C161.145 60.5407 163.24 61.5138 165.478 61.8871C167.716 62.2604 170.013 62.0199 172.126 61.1913C174.3 60.4161 176.082 58.8155 177.085 56.7362C178.089 54.6568 178.232 52.2659 177.486 50.0813C176.916 48.3413 175.536 47.2713 174.066 46.2013ZM167.586 44.1013C164.446 44.1013 162.186 41.7513 162.146 38.4113C162.106 35.0713 164.366 32.4113 167.566 32.4113C170.766 32.4113 172.946 34.8113 172.976 38.2713C173.006 41.7313 170.776 44.1313 167.586 44.1313V44.1013Z" fill="#E28420"/>
    <path d="M227.716 26.1711C226.156 21.9211 222.816 19.8711 218.416 19.7111C214.016 19.5511 209.676 19.7111 205.316 19.6311C204.096 19.6311 203.846 20.0611 203.856 21.1611C203.906 25.5311 203.856 29.9011 203.856 34.2711C203.856 38.7811 203.856 43.2711 203.856 47.8111C203.856 48.8111 204.126 49.2611 205.176 49.1811C206.154 49.1111 207.137 49.1111 208.116 49.1811C209.186 49.2611 209.486 48.7911 209.456 47.8111C209.456 45.9911 209.516 44.1711 209.456 42.3611C209.396 41.0611 209.716 40.5211 211.156 40.5911C213.456 40.7211 215.766 40.6611 218.066 40.5911C219.421 40.6299 220.77 40.3958 222.032 39.9028C223.295 39.4097 224.446 38.6678 225.416 37.7211C226.924 36.2555 227.952 34.3664 228.362 32.3039C228.773 30.2413 228.548 28.1027 227.716 26.1711ZM218.896 35.3411C216.026 35.7911 213.116 35.4511 210.226 35.5211C209.526 35.5211 209.456 35.0811 209.456 34.5211C209.456 31.6711 209.456 28.8311 209.456 25.9811C209.456 25.1911 209.826 24.9811 210.546 24.9811C211.876 24.9811 213.196 24.9811 214.546 24.9811C215.776 24.9811 217.006 24.9811 218.226 24.9811C219.491 25.0338 220.69 25.5649 221.579 26.467C222.468 27.3691 222.981 28.575 223.016 29.8411C223.169 31.1006 222.829 32.3706 222.066 33.3847C221.304 34.3989 220.178 35.0785 218.926 35.2811L218.896 35.3411Z" fill="#E28420"/>
    <path d="M131.436 29.5613C131.436 29.1913 131.566 28.6113 131.056 28.5613C129.689 28.4313 128.313 28.4313 126.946 28.5613C126.026 28.6813 126.676 29.8913 126.066 30.5113C125.916 30.4332 125.775 30.3394 125.646 30.2313C122.296 26.4513 113.246 27.0913 110.246 33.1313C109.097 35.6315 108.748 38.4252 109.246 41.1313C110.326 48.9713 118.246 51.1313 123.356 48.8113C124.355 48.233 125.299 47.5635 126.176 46.8113C126.866 49.1713 126.866 49.1713 129.296 49.1713C129.646 49.1713 129.986 49.1713 130.296 49.1713C131.076 49.2313 131.456 48.9613 131.446 48.1013C131.436 41.9213 131.446 35.7413 131.436 29.5613ZM120.166 45.0613C118.583 45.0882 117.053 44.4884 115.911 43.3926C114.768 42.2968 114.105 40.7939 114.066 39.2113C114.066 39.0913 114.066 38.9613 114.066 38.8413C113.97 37.286 114.495 35.7563 115.527 34.5882C116.558 33.4201 118.011 32.709 119.566 32.6113C119.832 32.5962 120.099 32.5962 120.366 32.6113C121.957 32.7278 123.442 33.45 124.516 34.6293C125.591 35.8086 126.172 37.355 126.14 38.9498C126.108 40.5447 125.465 42.0665 124.344 43.2016C123.224 44.3368 121.71 44.9988 120.116 45.0513L120.166 45.0613Z" fill="#E28420"/>
    <path d="M239.716 27.9813C236.972 27.8425 234.286 28.799 232.247 30.6405C230.209 32.482 228.985 35.0578 228.846 37.8013C228.846 38.0313 228.846 38.2513 228.846 38.4713C228.766 45.0513 232.976 49.6113 239.246 49.7313C245.516 49.8513 250.166 45.5313 250.296 39.1213C250.426 32.7113 246.066 28.1213 239.716 27.9813ZM239.516 44.9813C236.176 44.9813 233.936 42.4413 233.976 38.7213C234.016 35.0013 236.336 32.6313 239.606 32.7213C242.876 32.8113 245.116 35.4113 245.096 38.9513C245.076 42.4913 242.816 44.9813 239.506 44.9813H239.516Z" fill="#E28420"/>
    <path d="M200.386 35.9211C199.751 33.4386 198.286 31.2476 196.236 29.7111C194.587 28.7632 192.74 28.2118 190.841 28.1008C188.942 27.9897 187.044 28.3219 185.296 29.0711C184.516 29.4511 183.756 29.8711 183.016 30.3211L182.716 30.6011L182.396 30.9011C181.148 32.3553 180.257 34.0808 179.793 35.9401C179.33 37.7994 179.306 39.7413 179.726 41.6111C180.15 43.112 180.754 44.5558 181.526 45.9111C182.097 46.3024 182.586 46.8018 182.966 47.3811L183.306 47.6611C185.309 48.9962 187.663 49.7086 190.071 49.7086C192.478 49.7086 194.832 48.9962 196.836 47.6611C198.456 46.2245 199.646 44.3663 200.272 42.2936C200.899 40.2209 200.938 38.0148 200.386 35.9211ZM190.066 44.9811C186.746 44.9811 184.526 42.5611 184.496 38.9011C184.466 35.2411 186.786 32.6811 190.096 32.6811C193.246 32.6811 195.596 35.3511 195.616 38.9011C195.636 42.4511 193.376 44.9811 190.066 44.9811Z" fill="#E28420"/>
    <path d="M154.756 47.9813C154.756 48.8513 154.456 49.1513 153.566 49.1813C149.656 49.3113 149.656 49.3313 149.656 45.4113C149.656 43.1113 149.656 40.7913 149.656 38.4913C149.606 34.9313 147.836 32.9013 144.806 32.8913C141.776 32.8813 139.546 35.1813 139.466 38.5313C139.386 41.5313 139.396 44.6213 139.466 47.6613C139.466 48.7813 139.196 49.2013 137.996 49.2013C134.346 49.2013 134.346 49.2013 134.346 45.5813C134.346 40.3313 134.346 35.0813 134.346 29.8313C134.346 28.4213 134.796 28.0113 136.096 28.1913C136.484 28.2463 136.878 28.2463 137.266 28.1913C138.486 28.0313 139.266 28.3113 139.186 29.7813C139.186 30.9813 139.686 30.9013 140.506 30.2613C141.768 29.1459 143.338 28.4375 145.01 28.2288C146.682 28.0201 148.378 28.3207 149.876 29.0913C153.176 30.6813 154.496 33.6313 154.746 37.0913C154.876 38.8913 154.746 40.7213 154.746 42.5313C154.746 44.3613 154.716 46.1713 154.756 47.9813Z" fill="#E28420"/>
    <path d="M281.746 47.9811C281.746 48.8311 281.466 49.1711 280.556 49.2211C276.626 49.4111 276.626 49.4311 276.616 45.4711C276.616 43.0711 276.616 40.6611 276.616 38.2611C276.616 35.2611 274.876 33.1611 272.386 32.9711C269.306 32.7411 266.996 34.4311 266.586 37.5311C266.287 40.8028 266.244 44.0927 266.456 47.3711C266.456 48.9111 266.006 49.2711 264.556 49.2311C261.316 49.1411 261.316 49.2311 261.316 45.9511V38.7111C261.316 35.6211 261.316 32.5311 261.316 29.4411C261.316 28.5011 261.596 28.0811 262.576 28.1911C263.161 28.2559 263.751 28.2559 264.336 28.1911C265.556 28.0411 266.186 28.4311 266.136 29.7611C266.086 31.0911 266.646 30.8911 267.436 30.2711C268.698 29.1991 270.241 28.5118 271.882 28.2909C273.523 28.07 275.193 28.3248 276.694 29.0251C278.194 29.7254 279.462 30.8416 280.347 32.2413C281.232 33.641 281.697 35.2653 281.686 36.9211C281.776 40.5911 281.696 44.2711 281.746 47.9811Z" fill="#E28420"/>
    <path d="M294.926 49.3712C289.536 50.0612 286.356 47.2912 286.316 41.8412C286.316 40.7112 286.316 39.5912 286.316 38.4612C286.316 37.0412 286.316 35.6112 286.316 34.1912C286.316 33.1912 285.966 32.9412 285.016 32.9412C282.406 32.9412 282.486 32.8812 282.426 30.2512C282.426 28.8212 282.846 28.3812 284.266 28.4612C286.266 28.5712 286.266 28.4612 286.316 26.4612C286.316 23.1912 286.316 23.1912 289.566 22.8212C291.396 22.6212 291.396 22.6212 291.416 24.4812C291.416 28.4812 291.416 28.4812 295.416 28.4812C296.866 28.4812 297.236 28.9512 297.196 30.3312C297.096 33.6412 297.376 32.9312 294.546 32.9912C291.446 33.0512 291.446 32.9912 291.446 36.0712C291.446 37.9312 291.446 39.8012 291.446 41.6612C291.446 44.1612 292.706 45.2412 295.126 44.6612C296.466 44.3212 296.796 44.8212 297.126 45.9212C298.066 48.8812 298.066 48.9812 294.926 49.3712Z" fill="#E28420"/>
    <path d="M257.826 47.6512C257.826 48.9112 257.396 49.2112 256.206 49.2012C252.776 49.2012 252.756 49.2012 252.706 45.7312C252.706 43.3812 252.706 41.0212 252.706 38.6712H252.646C252.646 35.6712 252.646 32.6712 252.646 29.6712C252.646 28.6012 252.966 28.1512 254.156 28.1512C257.826 28.1512 257.816 28.0812 257.816 31.7312C257.796 37.0412 257.756 42.3512 257.826 47.6512Z" fill="#E28420"/>
    <path d="M254.956 25.9812C254.836 21.6812 258.476 17.2512 262.956 16.2312C263.516 20.1612 259.406 24.7412 254.956 25.9812Z" fill="#399936"/>
    <path d="M182.946 47.3711L181.506 45.9011C182.077 46.2923 182.566 46.7918 182.946 47.3711Z" fill="#E28420"/>
    <path d="M160.586 29.9812C160.315 30.4727 159.904 30.8729 159.406 31.1312L160.586 29.9812Z" fill="#E28420"/>
    <path d="M159.426 59.1213L158.506 58.0312C158.936 58.2692 159.263 58.6572 159.426 59.1213Z" fill="#E28420"/>
    <path d="M161.496 47.3512L160.296 46.5012C160.789 46.6219 161.218 46.9258 161.496 47.3512Z" fill="#E28420"/>
    <path d="M162.066 47.6512L161.786 47.4812C161.815 47.4655 161.848 47.4577 161.881 47.4586C161.914 47.4594 161.946 47.4689 161.974 47.4861C162.003 47.5033 162.026 47.5275 162.042 47.5565C162.058 47.5854 162.066 47.6181 162.066 47.6512Z" fill="#E28420"/>
    <path d="M48.2357 3.79127C48.0751 3.8849 47.93 4.00298 47.8057 4.14127C46.1028 6.54166 43.7257 8.38271 40.9757 9.43127C39.2167 9.9886 37.4183 10.4131 35.5957 10.7013H33.5957C32.9957 10.7013 32.7757 10.3813 33.0957 9.78127C33.4948 9.01122 33.9354 8.26345 34.4157 7.54127C36.4666 4.60437 39.4029 2.40034 42.7957 1.25127C44.8155 0.925855 46.8603 0.781947 48.9057 0.821274H49.1257C49.3457 2.03127 48.2757 2.71127 48.2357 3.79127Z" fill="#399936"/>
</svg>
