<svg width="13" height="17" viewBox="0 0 13 17" fill="none" xmlns="http://www.w3.org/2000/svg">
<path d="M10.3494 0.409424H2.5101C2.02518 0.410004 1.56028 0.60291 1.21741 0.945822C0.874536 1.28873 0.68168 1.75365 0.681152 2.23857V15.8421C0.681152 16.0439 0.761331 16.2375 0.904053 16.3802C1.04677 16.523 1.24035 16.6031 1.44218 16.6031C1.64402 16.6031 1.83759 16.523 1.98031 16.3802C2.12304 16.2375 2.20322 16.0439 2.20322 15.8421V1.93268H10.6557V3.99638C10.6557 4.19822 10.7359 4.39179 10.8786 4.53451C11.0213 4.67723 11.2149 4.75741 11.4167 4.75741C11.6186 4.75741 11.8121 4.67723 11.9548 4.53451C12.0976 4.39179 12.1777 4.19822 12.1777 3.99638V2.23857C12.1772 1.75375 11.9844 1.28893 11.6417 0.946033C11.299 0.603139 10.8342 0.410162 10.3494 0.409424Z" fill="white"/>
<path d="M11.7366 11.914C11.6361 11.8675 11.5267 11.8433 11.4159 11.8431C11.2352 11.8434 11.0605 11.9086 10.9237 12.0268C10.8402 12.0982 10.7731 12.1868 10.7271 12.2865C10.6811 12.3863 10.6573 12.4949 10.6573 12.6047V15.833C10.6573 16.0348 10.7375 16.2284 10.8802 16.3711C11.0229 16.5138 11.2165 16.594 11.4183 16.594C11.6202 16.594 11.8137 16.5138 11.9564 16.3711C12.0992 16.2284 12.1794 16.0348 12.1794 15.833V12.6047C12.1801 12.4591 12.1387 12.3164 12.0601 12.1939C11.9816 12.0713 11.8692 11.9741 11.7366 11.914Z" fill="white"/>
<path d="M11.5716 7.70372L9.10237 5.59359C8.97743 5.48795 8.81575 5.43607 8.65267 5.44929C8.4896 5.46252 8.33839 5.53978 8.23212 5.66417C8.12584 5.78857 8.07314 5.94998 8.08554 6.11313C8.09794 6.27627 8.17443 6.42786 8.29829 6.53477L9.65834 7.69714H5.22626C5.06427 7.69714 4.90892 7.76149 4.79437 7.87603C4.67983 7.99058 4.61548 8.14593 4.61548 8.30792C4.61548 8.46991 4.67983 8.62526 4.79437 8.73981C4.90892 8.85435 5.06427 8.9187 5.22626 8.9187H9.65854L8.29829 10.0807C8.23497 10.133 8.18271 10.1974 8.14454 10.2701C8.10636 10.3429 8.08305 10.4225 8.07596 10.5043C8.06886 10.5861 8.07812 10.6686 8.1032 10.7468C8.12828 10.825 8.16868 10.8974 8.22204 10.9599C8.2754 11.0223 8.34065 11.0735 8.414 11.1105C8.48735 11.1475 8.56732 11.1695 8.64926 11.1752C8.73119 11.181 8.81345 11.1703 8.89124 11.144C8.96904 11.1176 9.04081 11.076 9.10237 11.0217L11.5716 8.91153C11.6589 8.8369 11.729 8.74425 11.777 8.63994C11.8251 8.53564 11.8499 8.42216 11.8499 8.30732C11.8499 8.19248 11.8251 8.07901 11.777 7.9747C11.729 7.8704 11.6589 7.77775 11.5716 7.70312V7.70372Z" fill="white"/>
</svg>
