<svg width="120" height="145" viewBox="0 0 120 145" fill="none" xmlns="http://www.w3.org/2000/svg">
    <defs>
        <linearGradient id="paint0_linear_117_793" x1="61.6174" y1="10.77" x2="61.6174" y2="152.22" gradientUnits="userSpaceOnUse">
            <stop stop-color="#EABD3A"/>
            <stop offset="1" stop-color="#D49431"/>
        </linearGradient>
    </defs>
    <path d="M87.5108 7.95572C87.2411 8.10514 86.9987 8.29929 86.7939 8.52993C83.7493 12.5861 79.6005 15.6765 74.8452 17.4306C71.7148 18.4255 68.5213 19.2088 65.2862 19.7753H61.7494C60.6979 19.7753 60.2677 19.2968 60.7934 18.3398C61.4681 17.0678 62.2182 15.8373 63.0398 14.6551C66.7137 9.69846 71.8187 5.99035 77.6651 4.03175C81.2536 3.44986 84.8796 3.13001 88.5145 3.07471H88.9446C89.4226 5.03667 87.5108 6.23301 87.5108 7.95572Z" fill="#619740"/>
    <path d="M87.5108 34.7056C81.6087 28.2052 73.6344 23.9595 64.9515 22.6945C60.6907 21.8561 56.3076 21.8561 52.0468 22.6945C48.0409 23.3641 44.2127 24.842 40.7948 27.0383C37.3769 29.2347 34.4406 32.1038 32.1642 35.4713C29.1339 39.8155 26.9302 44.6822 25.664 49.8271C25.7059 49.8673 25.7393 49.9156 25.7621 49.969C25.7849 50.0225 25.7966 50.08 25.7966 50.1381C25.7966 50.1962 25.7849 50.2538 25.7621 50.3072C25.7393 50.3607 25.7059 50.409 25.664 50.4492C25.664 50.9277 25.664 51.4062 25.664 51.8848C25.2365 56.0419 25.6594 60.2427 26.9067 64.2308C29.3289 71.1196 33.6145 77.1995 39.2856 81.7928C40.7561 82.8521 41.9538 84.2464 42.7799 85.8606C43.6061 87.4748 44.0369 89.2625 44.0369 91.0763C44.0369 92.89 43.6061 94.6777 42.7799 96.2919C41.9538 97.9061 40.7561 99.3004 39.2856 100.36C38.8554 101.412 39.2856 101.795 40.3371 101.747C42.7158 101.739 45.0926 101.611 47.4585 101.365C56.763 100.541 65.7875 97.7519 73.937 93.1818C79.375 89.9408 84.2235 85.7985 88.2755 80.9315C88.4817 80.297 88.8832 79.7442 89.4226 79.3523C91.3659 76.1139 92.9677 72.6819 94.2021 69.1118C96.4537 63.3308 97.0202 57.0287 95.8357 50.938C94.6512 44.8474 91.7643 39.2185 87.5108 34.7056ZM52.1903 29.2504H51.9513H51.6167L51.1388 29.4897L50.8042 29.7289H50.3262L49.9916 29.9682C44.7261 33.739 40.2455 38.5015 36.8003 43.9891C35.701 40.0173 38.9987 34.4185 44.8775 29.6332C44.9211 29.608 44.9707 29.5948 45.0211 29.5948C45.0714 29.5948 45.1208 29.608 45.1644 29.6332L45.6901 29.394C46.215 29.3036 46.6992 29.0528 47.0762 28.6761L47.6976 28.4369H48.2232L48.8446 28.1497L49.8483 27.8626H50.8042C51.9513 26.6185 53.3852 27.5277 54.7234 27.3362C54.5028 27.7464 54.1887 28.0987 53.8067 28.3648C53.4248 28.6308 52.9856 28.8031 52.5248 28.8676L52.1903 29.2504Z" fill="white"/>
    <path d="M119.008 53.6073C117.734 41.4928 112.588 30.1138 104.335 21.1631C100.893 17.1396 96.8262 13.6979 92.2904 10.9704C90.8772 9.70448 89.2615 8.68542 87.5109 7.95577C87.2185 8.0913 86.958 8.28693 86.7461 8.52998C83.7015 12.5861 79.5527 15.6766 74.7974 17.4306C71.6684 18.4305 68.4746 19.2139 65.2384 19.7754H61.7016C60.6501 19.7754 60.2199 19.2969 60.7935 18.3398C61.4517 17.0685 62.1859 15.838 62.992 14.6551C66.6741 9.68614 71.7984 5.97616 77.6651 4.03181C81.2537 3.44992 84.8797 3.13007 88.5145 3.07476C88.5145 3.07476 88.2278 2.54833 88.0844 2.50048C85.9323 1.93527 83.6868 1.82127 81.4887 2.16555C80.0674 2.60688 78.5713 2.75341 77.0916 2.59621C73.9401 1.79475 70.7495 1.1559 67.5326 0.682122C62.4267 -0.227374 57.2006 -0.227374 52.0947 0.682122C47.2312 1.49052 42.4374 2.67437 37.7562 4.22318C35.7488 4.94098 34.1238 6.52017 32.1164 7.19011C30.1933 7.9566 28.3778 8.96994 26.7156 10.2048C23.1833 12.5551 19.9702 15.3539 17.1565 18.5312C13.0621 22.6989 9.61453 27.4572 6.92848 32.6478C5.63801 35.2318 4.49088 37.8638 3.43939 40.5914C1.64066 45.3656 0.561359 50.3813 0.237056 55.4736C-0.0593344 61.0148 0.293573 66.5717 1.28855 72.0307C2.43516 76.9536 4.03517 81.7594 6.06806 86.3866C6.49229 87.7111 7.21137 88.9218 8.17105 89.9276C8.42086 90.1612 8.69307 90.3695 8.98363 90.5497L10.4174 92.2245C10.6111 93.0705 11.1252 93.8082 11.8514 94.2822C11.9234 94.6603 12.0759 95.0184 12.2986 95.3322C12.5213 95.646 12.8089 95.9081 13.1418 96.1007C13.1426 96.3037 13.2078 96.5011 13.328 96.6646C13.4483 96.828 13.6174 96.9489 13.8108 97.0098C13.8072 97.1652 13.8579 97.3171 13.9538 97.4393C14.0497 97.5615 14.185 97.6466 14.3367 97.6798L14.719 98.1105C14.7771 98.4512 14.9221 98.771 15.1398 99.0393C15.3574 99.3075 15.6405 99.515 15.9617 99.6417C16.0118 99.8172 16.103 99.9782 16.2277 100.111C16.3524 100.245 16.5069 100.346 16.6786 100.407C16.7557 100.645 16.8933 100.858 17.0776 101.025C17.262 101.193 17.4868 101.31 17.7301 101.364C18.0646 101.364 18.2081 101.364 18.1125 101.747C18.1196 101.894 18.175 102.035 18.27 102.148C18.3651 102.26 18.4944 102.338 18.6382 102.369C19.2117 102.369 19.4507 102.656 19.4029 103.183L19.7852 103.566C19.835 103.717 19.9309 103.85 20.0594 103.944C20.188 104.038 20.3429 104.09 20.5023 104.092C20.7412 104.092 20.8846 104.092 20.8846 104.475L21.3147 104.858C21.3751 104.851 21.4363 104.857 21.4941 104.876C21.5519 104.894 21.6052 104.925 21.6503 104.966C21.6955 105.006 21.7315 105.056 21.7561 105.112C21.7806 105.167 21.7931 105.228 21.7927 105.288C30.697 113.216 41.8666 118.138 53.7197 119.357C57.2088 119.74 57.4478 119.979 57.0176 123.472C56.3642 128.476 54.8609 133.332 52.5727 137.828L48.8925 144.767C51.5504 143.327 54.1199 141.729 56.5875 139.982C60.1243 137.493 63.7567 135.196 67.0546 132.373C67.0546 131.799 67.3413 131.56 67.9149 131.655C69.211 131.274 70.3399 130.464 71.1172 129.358C72.4087 128.942 73.5316 128.12 74.3194 127.014C74.3194 126.774 74.3195 126.631 74.7018 126.631C74.7018 126.391 74.9408 126.296 75.2275 126.344C76.3579 125.918 77.3499 125.19 78.0953 124.238C78.259 124.25 78.4231 124.221 78.5731 124.154C78.7231 124.087 78.8543 123.985 78.9555 123.855V123.568L79.2423 123.281C79.5094 123.266 79.766 123.172 79.979 123.01C80.192 122.848 80.3516 122.626 80.4372 122.372L80.8674 121.989L81.3931 121.558C81.6909 121.539 81.9753 121.427 82.2066 121.239C82.4379 121.05 82.6046 120.794 82.6835 120.506C82.8366 120.501 82.9842 120.447 83.1046 120.353C83.225 120.258 83.312 120.127 83.3527 119.979C83.6237 119.959 83.885 119.869 84.1111 119.718C84.3372 119.567 84.5204 119.361 84.6432 119.118V118.879C85.0357 118.807 85.402 118.631 85.7044 118.371C86.0068 118.11 86.2345 117.773 86.3638 117.395C90.1455 114.962 93.5579 111.996 96.4964 108.59C96.8694 108.428 97.2057 108.192 97.485 107.895C97.7643 107.599 97.9808 107.25 98.1214 106.868C99.1991 106.332 100.035 105.409 100.463 104.283L101.18 103.422C103.503 101.267 105.499 98.7844 107.107 96.0528C107.644 95.7075 108.1 95.2505 108.445 94.7129C108.634 94.443 108.794 94.1544 108.923 93.8516C108.923 93.8516 108.923 93.5644 108.923 93.4208V93.0381C110.828 91.0899 112.267 88.7336 113.129 86.1473C114.843 83.2119 115.933 79.9536 116.331 76.5767C116.331 76.146 116.331 75.811 116.714 75.5718C117.423 73.8212 117.811 71.9571 117.861 70.0687C119.361 64.7175 119.751 59.1153 119.008 53.6073ZM94.1545 69.2552C92.9397 72.8333 91.337 76.2673 89.375 79.4957C89.375 80.2614 89.0882 80.8834 88.1801 81.027C84.128 85.894 79.2795 90.0363 73.8416 93.2773C65.692 97.8474 56.6675 100.636 47.3631 101.46C44.9971 101.707 42.6204 101.835 40.2416 101.843C39.1424 101.843 38.76 101.508 39.1901 100.455C44.5432 95.6699 46.4072 87.7742 39.1901 81.9362C33.5282 77.3343 29.2445 71.2572 26.8111 64.3742C25.5664 60.3691 25.1438 56.1533 25.5685 51.9804C25.5685 51.5018 25.5685 51.0233 25.5685 50.5448C25.5685 50.0662 25.5685 50.0663 25.5685 49.827C26.845 44.6857 29.0477 39.8207 32.0686 35.4711C34.3506 32.1043 37.2878 29.2331 40.7042 27.0295C44.1206 24.8259 47.946 23.3351 51.9513 22.6466C56.2145 21.833 60.5929 21.833 64.8561 22.6466C73.5452 23.8922 81.5257 28.1411 87.4153 34.6576C91.7136 39.1827 94.6312 44.843 95.8251 50.9723C97.019 57.1015 96.4394 63.4447 94.1545 69.2552Z" fill="url(#paint0_linear_117_793)"/>
    <path d="M25.6162 50.6882C25.6162 50.6882 25.6162 50.2097 25.6162 49.9705C25.6581 50.0107 25.6916 50.0589 25.7144 50.1124C25.7372 50.1659 25.7489 50.2233 25.7489 50.2814C25.7489 50.3396 25.7372 50.3971 25.7144 50.4505C25.6916 50.504 25.6581 50.5523 25.6162 50.5925V50.6882Z" fill="#CA8C2B"/>
    <path d="M51.2344 29.9204L50.7565 30.2075C50.5175 30.2075 50.4219 30.2075 50.4219 30.4467H49.944C49.944 30.4467 49.6094 30.4467 49.6094 30.7338C44.3324 34.4915 39.8493 39.2564 36.4179 44.7547C35.3187 40.7829 38.6165 35.1841 44.4953 30.3988H44.7821L45.3079 30.1596C45.8328 30.0693 46.3169 29.8185 46.6938 29.4418L47.3152 29.1547H47.841C48.1278 29.1547 48.3667 29.1547 48.4622 28.8676L49.466 28.5805H50.4219C51.0432 28.5805 52.0948 28.3412 52.1426 29.5853H51.9035C51.9035 29.5853 51.6167 29.5854 51.9035 29.8246C51.33 29.6332 51.2344 29.7289 51.2344 29.9204Z" fill="#E8BA39"/>
    <path d="M52.1904 29.2503C52.1904 28.0061 51.091 28.4368 50.4697 28.2454C51.6167 26.9533 53.0506 27.9104 54.3889 27.719C54.1682 28.1291 53.8541 28.4815 53.4722 28.7475C53.0902 29.0135 52.6512 29.1858 52.1904 29.2503Z" fill="white"/>
    <path d="M48.3188 28.7715C48.3188 29.1543 47.9844 29.1543 47.6976 29.0586L48.3188 28.7715Z" fill="#D5D3CF"/>
    <path d="M50.0395 30.7337C50.0395 30.4945 50.0395 30.3987 50.3741 30.4944L50.0395 30.7337Z" fill="#D5D3CF"/>
    <path d="M44.782 30.3988C44.6865 30.3988 44.782 30.1596 44.782 30.3988V30.3988Z" fill="#D5D3CF"/>
    <path d="M51.2344 29.9203C51.2344 29.9203 51.2344 29.6332 51.569 29.9203H51.2344Z" fill="#D5D3CF"/>
    <path d="M49.5137 28.4369C49.4181 28.389 49.5137 28.1976 49.5137 28.4369V28.4369Z" fill="#D5D3CF"/>
    <path d="M50.5652 30.351C50.5652 30.5902 50.6608 30.351 50.5652 30.351V30.351Z" fill="#D5D3CF"/>
    <path d="M48.8447 31.5472C48.8411 31.5058 48.8484 31.4642 48.8658 31.4265C48.8832 31.3888 48.9101 31.3563 48.9439 31.3322C48.9776 31.308 49.0171 31.2931 49.0584 31.2889C49.0996 31.2846 49.1413 31.2911 49.1793 31.3079L48.8447 31.5472Z" fill="#D5D3CF"/>
    <path d="M44.0172 30.7815C44.0172 30.7815 44.0172 31.0687 43.7305 30.7815C43.7753 30.7603 43.8243 30.7493 43.8738 30.7493C43.9234 30.7493 43.9724 30.7603 44.0172 30.7815Z" fill="#D5D3CF"/>
</svg>
